<svg width="39.999878" height="37.812256" viewBox="0 0 39.9999 37.8123" fill="none" xmlns="http://www.w3.org/2000/svg" xmlns:xlink="http://www.w3.org/1999/xlink">
	<desc>
			Created with Pixso.
	</desc>
	<defs/>
	<path id="Vector" d="M37.87 11.24L31.09 11.24C29.92 11.24 28.97 12.2 28.97 13.37L28.97 21.17L26.43 21.17C26.57 20.66 26.62 20.06 26.59 19.35L26.59 19.35C26.53 16.38 25.99 13.87 24.98 11.91C24.2 10.38 23.29 9.46 22.5 8.91C23.42 7.97 23.95 6.62 23.95 5.06C23.95 2.27 21.73 0 18.98 0C16.24 0 14.01 2.27 14.01 5.06C14.01 5.39 14.28 5.65 14.6 5.65L15 5.65C14.96 5.87 14.94 6.1 14.94 6.33C14.94 8.3 16.35 9.94 18.21 10.31C18.01 11.04 17.92 11.89 17.92 12.86L16.46 14.12L12.9 14.4L8.8 13.05C8.42 12.92 8 12.78 7.63 13.05C7.26 13.31 7.26 13.77 7.26 13.92L7.26 16.97C7.26 17.3 7.53 17.56 7.85 17.56L8.55 17.56L7.48 21.26C7.39 21.57 7.57 21.89 7.88 21.98C8.19 22.07 8.51 21.89 8.6 21.58L9.77 17.56L11.43 17.56C9.36 23.88 10.54 28.09 12.36 32.36L11.31 32.36L6.92 27.46L7.85 24.25C7.94 23.94 7.76 23.62 7.45 23.53C7.14 23.44 6.81 23.62 6.72 23.93L5.83 26.99C3.09 26.95 0.64 28.84 0.01 31.56C-0.06 31.88 0.13 32.19 0.45 32.26L1.28 32.45C1.07 34.66 2.52 36.74 4.74 37.25C5.08 37.33 5.42 37.37 5.75 37.37C6.58 37.37 7.4 37.14 8.12 36.68C8.97 36.15 9.6 35.37 9.95 34.45L10.6 34.6C10.8 34.64 10.98 34.67 11.17 34.57C11.34 34.47 11.46 34.31 11.5 34.12C11.54 33.93 11.57 33.73 11.59 33.53L23.85 33.53C24.24 35.97 26.31 37.81 28.79 37.81C31.26 37.81 33.34 35.97 33.73 33.53L34.18 33.53C34.18 33.53 34.26 33.54 34.28 33.54C34.45 33.54 34.69 33.52 34.89 33.31C34.99 33.21 35.11 33.03 35.1 32.74C35.08 32.19 35 31.66 34.86 31.16C35.33 28.32 34.88 26.6 34.21 25.25C34.63 24.97 34.91 24.5 34.91 23.96L34.91 22.35L37.87 22.35C39.04 22.35 39.99 21.39 39.99 20.22L39.99 13.37C40 12.2 39.04 11.24 37.87 11.24ZM7.5 35.69C6.75 36.16 5.86 36.31 5 36.11L5 36.11C3.42 35.75 2.36 34.29 2.44 32.72L8.79 34.18C8.53 34.8 8.08 35.33 7.5 35.69ZM10.43 33.36L1.32 31.26C2.02 29.33 3.91 28.06 5.98 28.17L10.45 33.16C10.45 33.23 10.44 33.29 10.43 33.36ZM19.28 23.15C19.11 23.6 19.11 24.15 19.11 24.91L19.11 27.13L16.97 27.13L16.97 24.09C16.97 20.66 18.84 20.05 19.68 19.95L25.42 19.95C25.4 20.73 25.23 21.28 24.89 21.63C24.5 22.04 23.84 22.24 22.86 22.24L20.76 22.24C20.01 22.24 19.51 22.55 19.28 23.15ZM19.11 28.3L19.11 29.7C19.11 29.7 19.1 29.7 19.1 29.7L14.94 29.7C14.98 29.26 15.12 28.93 15.34 28.69C15.67 28.35 16.13 28.3 16.38 28.3L19.11 28.3ZM25.4 18.78L20.07 18.78C19.86 18.11 19.66 17.37 19.51 16.61L21.13 15.56C22.01 14.98 22.47 14.17 22.39 13.33C22.32 12.59 21.81 11.92 21.1 11.64C20.45 11.38 19.75 11.46 19.13 11.85C19.18 11.29 19.28 10.79 19.42 10.37C19.67 10.34 19.91 10.29 20.16 10.22C20.65 10.11 21.11 9.92 21.53 9.68C22.65 10.35 25.14 12.54 25.4 18.78ZM15.23 4.48C15.5 2.61 17.08 1.17 18.98 1.17C21.08 1.17 22.78 2.92 22.78 5.06C22.78 6.81 21.94 8.22 20.59 8.84L20.59 5.76C20.59 5.22 20.39 4.57 19.42 4.48C19.4 4.48 19.38 4.48 19.36 4.48L15.23 4.48ZM16.11 6.33C16.11 6.09 16.14 5.87 16.19 5.65L19.33 5.65C19.37 5.65 19.4 5.66 19.42 5.66C19.42 5.68 19.42 5.72 19.42 5.76L19.42 9.19C19.28 9.21 19.14 9.22 19 9.22C19 9.22 19 9.22 19 9.22C17.41 9.22 16.11 7.92 16.11 6.33ZM15.35 15.38L16.74 15.27C16.87 15.26 16.98 15.21 17.08 15.13L19.58 12.98L19.58 12.98C19.82 12.77 20.08 12.66 20.33 12.66C20.45 12.66 20.56 12.68 20.66 12.72C20.97 12.85 21.19 13.13 21.22 13.45C21.26 13.84 21 14.24 20.49 14.58L17.7 16.39L15.35 16.39L15.35 15.38L15.35 15.38ZM12.88 15.58L14.18 15.48L14.18 16.39L12.67 16.39C12.47 16.39 12.42 16.22 12.42 16.09C12.41 16.01 12.42 15.62 12.88 15.58ZM11.49 15.18C11.31 15.47 11.23 15.81 11.25 16.13C11.25 16.22 11.26 16.3 11.27 16.38C11.27 16.38 11.27 16.39 11.27 16.39L8.44 16.39L8.44 14.16L11.49 15.17C11.49 15.17 11.49 15.18 11.49 15.18ZM12.67 17.56L17.87 17.56C17.99 17.56 18.1 17.53 18.19 17.46L18.46 17.29C18.58 17.86 18.73 18.4 18.89 18.92C17.69 19.28 15.8 20.42 15.8 24.09L15.8 27.18C15.38 27.27 14.9 27.46 14.49 27.88C14.06 28.33 13.82 28.94 13.76 29.7L12.58 29.7C11.39 26.26 10.93 22.61 12.67 17.56ZM13.64 32.36C13.42 31.86 13.21 31.37 13.01 30.87L19.1 30.87C19.89 30.87 20.29 30.51 20.29 29.8L20.29 27.71L20.29 25.5L24.91 25.5C25.23 25.5 25.5 25.24 25.5 24.91C25.5 24.59 25.23 24.33 24.91 24.33L20.29 24.33C20.3 24 20.32 23.72 20.38 23.56C20.41 23.48 20.43 23.42 20.76 23.42L22.86 23.41C24.18 23.41 25.12 23.09 25.74 22.44C25.77 22.41 25.8 22.38 25.83 22.35L29.55 22.35L33.74 22.35L33.74 23.96C33.74 24.16 33.57 24.33 33.37 24.33L27.54 24.33C27.21 24.33 26.95 24.59 26.95 24.91C26.95 25.24 27.21 25.5 27.54 25.5L33.03 25.5C33.49 26.36 33.91 27.43 33.88 29.12C32.72 27.51 30.84 26.47 28.72 26.47C27 26.47 25.4 27.14 24.2 28.36C23.13 29.44 22.49 30.85 22.35 32.36L13.64 32.36ZM28.79 36.64C26.96 36.64 25.41 35.32 25.04 33.53L32.54 33.53C32.16 35.32 30.62 36.64 28.79 36.64ZM33.2 32.36L24.37 32.36L23.53 32.36C23.82 29.71 26.03 27.65 28.72 27.65C31.07 27.65 33.05 29.2 33.7 31.37C33.7 31.38 33.71 31.38 33.71 31.39C33.8 31.7 33.87 32.03 33.9 32.36L33.2 32.36ZM38.82 20.22C38.82 20.75 38.4 21.17 37.87 21.17L30.14 21.17L30.14 18.15L38.82 18.15L38.82 20.22ZM38.82 16.98L30.14 16.98L30.14 15.73L38.82 15.73L38.82 16.98ZM38.82 14.56L30.14 14.56L30.14 13.37C30.14 12.84 30.56 12.41 31.09 12.41L37.87 12.41C38.4 12.41 38.82 12.84 38.82 13.37L38.82 14.56Z" fill="#09A66D" fill-opacity="1.000000" fill-rule="nonzero"/>
</svg>
