<svg width="32.000000" height="32.000000" viewBox="0 0 32 32" fill="none" xmlns="http://www.w3.org/2000/svg" xmlns:xlink="http://www.w3.org/1999/xlink">
	<desc>
			Created with Pixso.
	</desc>
	<defs>
		<clipPath id="clip32_194">
			<rect id="harvest 1" rx="0.000000" width="31.000000" height="31.000000" transform="translate(0.500000 0.500000)" fill="white" fill-opacity="0"/>
		</clipPath>
	</defs>
	<rect id="harvest 1" rx="0.000000" width="31.000000" height="31.000000" transform="translate(0.500000 0.500000)" fill="#FFFFFF" fill-opacity="0"/>
	<g clip-path="url(#clip32_194)">
		<path id="Vector" d="M22.47 10L23.92 10C25.12 10 26.13 9.13 26.37 8L24.92 8C23.71 8 22.7 8.86 22.47 10Z" fill="#09A66D" fill-opacity="1.000000" fill-rule="nonzero"/>
		<path id="Vector" d="M11 5.5C11.04 5.5 11.09 5.5 11.14 5.5L11.49 1.99C11.5 1.7 11.29 1.5 11.04 1.5L10.95 1.5C10.7 1.5 10.5 1.7 10.5 1.95L10.85 5.5C10.9 5.5 10.95 5.5 11 5.5Z" fill="#09A66D" fill-opacity="1.000000" fill-rule="nonzero"/>
		<path id="Vector" d="M7 16C7 15.82 7.01 15.66 7.04 15.5L6 15.5L6 15.84C6.37 16.02 6.71 16.26 7 16.55L7 16Z" fill="#09A66D" fill-opacity="1.000000" fill-rule="nonzero"/>
		<path id="Vector" d="M6.59 3.77L8.3 6.29C8.43 6.2 8.57 6.12 8.72 6.05L7.69 3.22C7.68 3.2 7.67 3.18 7.66 3.17C7.59 3.03 7.48 2.93 7.34 2.88C7.2 2.84 7.05 2.85 6.92 2.91L6.8 2.97C6.53 3.11 6.42 3.44 6.55 3.71C6.56 3.73 6.58 3.75 6.59 3.77Z" fill="#09A66D" fill-opacity="1.000000" fill-rule="nonzero"/>
		<path id="Vector" d="M8.69 14.5L14.26 14.5L14.91 11.35C14.97 11.08 15 10.8 15 10.53C15 8.29 13.2 6.5 11 6.5C8.79 6.5 7 8.29 7 10.5C7 10.8 7.02 11.08 7.08 11.35L7.66 14.12C8.21 13.43 9.05 13 10 13L10 14C9.49 14 9.04 14.19 8.69 14.5ZM12.5 8.5L13.5 8.5L13.5 9.5L12.5 9.5L12.5 8.5ZM12.5 10.5L13.5 10.5L13.5 11.5L12.5 11.5L12.5 10.5ZM12.5 12.5L13.5 12.5L13.5 13.5L12.5 13.5L12.5 12.5Z" fill="#09A66D" fill-opacity="1.000000" fill-rule="nonzero"/>
		<path id="Vector" d="M5.5 18.5L6.94 18.5C6.71 17.36 5.7 16.5 4.5 16.5L3.05 16.5C3.28 17.63 4.29 18.5 5.5 18.5Z" fill="#09A66D" fill-opacity="1.000000" fill-rule="nonzero"/>
		<path id="Vector" d="M15.4 3.77C15.41 3.75 15.43 3.73 15.44 3.71C15.57 3.44 15.46 3.11 15.19 2.97L15.07 2.91C14.94 2.85 14.79 2.83 14.65 2.88C14.51 2.93 14.4 3.02 14.33 3.16C14.32 3.18 14.31 3.2 14.3 3.22L13.27 6.05C13.42 6.12 13.55 6.2 13.69 6.29L15.4 3.77Z" fill="#09A66D" fill-opacity="1.000000" fill-rule="nonzero"/>
		<path id="Vector" d="M14.49 24.5L28.5 24.5L28.5 21.5L13.82 21.5C14.26 22.42 14.49 23.44 14.49 24.5ZM26.5 22.5L27.5 22.5L27.5 23.5L26.5 23.5L26.5 22.5Z" fill="#09A66D" fill-opacity="1.000000" fill-rule="nonzero"/>
		<path id="Vector" d="M13.23 28.5L27 28.5C27.82 28.5 28.5 27.82 28.5 27L28.5 25.5L14.42 25.5C14.26 26.6 13.84 27.62 13.23 28.5ZM26.5 26.5L27.5 26.5L27.5 27.5L26.5 27.5L26.5 26.5Z" fill="#09A66D" fill-opacity="1.000000" fill-rule="nonzero"/>
		<path id="Vector" d="M8.07 15.5C8.02 15.66 8 15.82 8 16L8 16.5L28.5 16.5L29 16.5L30.5 16.5L30.5 15.5L8.07 15.5Z" fill="#09A66D" fill-opacity="1.000000" fill-rule="nonzero"/>
		<path id="Vector" d="M8 18.93C8.1 18.9 8.2 18.88 8.29 18.84C9.81 18.19 11.59 18.58 12.7 19.82C12.89 20.03 13.07 20.26 13.23 20.49L28.5 20.49L28.5 17.49L8 17.49L8 18.93ZM26.5 18.5L27.5 18.5L27.5 19.5L26.5 19.5L26.5 18.5Z" fill="#09A66D" fill-opacity="1.000000" fill-rule="nonzero"/>
		<path id="Vector" d="M11.96 20.49C11.14 19.58 9.8 19.28 8.68 19.76C8.47 19.85 8.23 19.91 8 19.95L8 20.89C8.49 20.71 8.96 20.32 9.14 20.14L9.85 20.85C9.73 20.97 8.67 22 7.5 22C6.32 22 5.26 20.97 5.14 20.85L5.85 20.14C6.03 20.32 6.5 20.71 7 20.89L7 19.5L5.5 19.5C5.33 19.5 5.16 19.48 5 19.46C4.3 19.51 3.56 19.9 3.01 20.51C2.03 21.61 1.5 23.02 1.5 24.5C1.5 26.14 2.15 27.68 3.34 28.82C4.52 29.96 6.07 30.55 7.73 30.49C10.82 30.37 13.35 27.86 13.49 24.77C13.56 23.18 13.02 21.66 11.96 20.49ZM7.5 29.5C4.74 29.5 2.5 27.25 2.5 24.5L3.5 24.5C3.5 26.7 5.29 28.5 7.5 28.5L7.5 29.5Z" fill="#09A66D" fill-opacity="1.000000" fill-rule="nonzero"/>
		<path id="Vector" d="M26.38 14.5C26.14 13.57 25.68 12.71 25.04 11.99C24.22 11.08 22.87 10.78 21.76 11.26C21.67 11.3 21.58 11.33 21.49 11.35L21.49 7C21.49 6.17 22.17 5.5 22.99 5.5L23.49 5.5L23.49 4.5L22.99 4.5C21.62 4.5 20.49 5.62 20.49 7L20.49 11.35C20.4 11.33 20.32 11.3 20.23 11.26C19.12 10.78 17.77 11.08 16.95 11.99C16.3 12.71 15.85 13.57 15.61 14.5L20.99 14.5L26.38 14.5ZM18.75 12.06C18.76 12.07 19.51 12.5 20.99 12.5C22.48 12.5 23.23 12.07 23.24 12.06L23.75 12.92C23.71 12.95 22.78 13.5 20.99 13.5C19.21 13.5 18.28 12.95 18.24 12.92L18.75 12.06Z" fill="#09A66D" fill-opacity="1.000000" fill-rule="nonzero"/>
	</g>
</svg>
