<svg width="56.000000" height="56.000000" viewBox="0 0 56 56" fill="none" xmlns="http://www.w3.org/2000/svg" xmlns:xlink="http://www.w3.org/1999/xlink">
	<desc>
			Created with Pixso.
	</desc>
	<defs>
		<clipPath id="clip32_143">
			<rect id="planet-earth (1) 1" rx="0.000000" width="55.000000" height="55.000000" transform="translate(0.500000 0.500000)" fill="white" fill-opacity="0"/>
		</clipPath>
	</defs>
	<rect id="planet-earth (1) 1" rx="0.000000" width="55.000000" height="55.000000" transform="translate(0.500000 0.500000)" fill="#FFFFFF" fill-opacity="0"/>
	<g clip-path="url(#clip32_143)">
		<path id="Vector" d="M42.22 32.21C42.22 22.03 34 13.78 23.84 13.78C13.69 13.78 5.46 22.03 5.46 32.21C5.46 42.39 13.69 50.64 23.84 50.64C34 50.64 42.22 42.39 42.22 32.21Z" fill="#89C8FD" fill-opacity="1.000000" fill-rule="nonzero"/>
		<path id="Vector" d="M23.84 13.78C22.9 13.78 21.97 13.85 21.07 13.99C29.9 15.33 36.67 22.98 36.67 32.21C36.67 41.44 29.9 49.09 21.07 50.43C21.97 50.57 22.9 50.64 23.84 50.64C34 50.64 42.22 42.39 42.22 32.21C42.22 22.03 34 13.78 23.84 13.78Z" fill="#60B6FF" fill-opacity="1.000000" fill-rule="nonzero"/>
		<path id="Vector" d="M21.46 20.95C18.62 22.72 16.5 25.56 18.09 28.75C19.69 31.95 23.22 30.7 26.5 30.26C29.77 29.82 27.3 39.93 29.24 42.41C31.19 44.9 36.67 39.93 36.14 36.74C35.36 32.01 35.08 30.35 41.45 26.98L41.47 26.97C39.32 19.7 32.82 14.3 25 13.82L24.99 13.85C24.99 13.85 24.29 19.17 21.46 20.95Z" fill="#BAEB6C" fill-opacity="1.000000" fill-rule="nonzero"/>
		<path id="Vector" d="M35.36 17.85C35.36 17.85 35.36 17.85 35.36 17.85C35.36 17.85 35.36 17.85 35.36 17.85Z" fill="#BAEB6C" fill-opacity="1.000000" fill-rule="nonzero"/>
		<path id="Vector" d="M37.61 20C37.61 20 37.61 20 37.61 20C37.61 20 37.61 20 37.61 20Z" fill="#BAEB6C" fill-opacity="1.000000" fill-rule="nonzero"/>
		<path id="Vector" d="M11.63 40.55C10.78 39.25 13.14 36.2 13.67 33.9C14.2 31.59 11.01 31.77 10.04 30.97C9.07 30.17 7.74 26.71 6.77 25.91L6.61 25.79C5.87 27.79 5.46 29.95 5.46 32.21C5.46 38.3 8.41 43.7 12.96 47.06L12.96 46.67C12.96 46.67 13.67 43.66 11.63 40.55Z" fill="#BAEB6C" fill-opacity="1.000000" fill-rule="nonzero"/>
		<path id="Vector" d="M36.14 36.74C36.14 36.71 36.14 36.69 36.13 36.67C35.78 38.09 35.26 39.44 34.6 40.71C35.65 39.48 36.35 37.97 36.14 36.74Z" fill="#BAEB6C" fill-opacity="1.000000" fill-rule="nonzero"/>
		<path id="Vector" d="M25 13.82L24.99 13.85C24.99 13.85 24.94 14.29 24.78 14.97C31.23 17.41 35.95 23.37 36.6 30.52C37.41 29.41 38.89 28.33 41.45 26.98L41.47 26.97C39.32 19.7 32.82 14.3 25 13.82Z" fill="#96D629" fill-opacity="1.000000" fill-rule="nonzero"/>
		<path id="Vector" d="M23.82 56C22.52 56 21.21 55.89 19.9 55.67C13.63 54.64 8.15 51.23 4.45 46.07C0.75 40.9 -0.72 34.61 0.32 28.35C0.39 27.9 0.82 27.59 1.28 27.66C1.73 27.74 2.04 28.17 1.96 28.62C1 34.45 2.36 40.3 5.8 45.1C9.24 49.89 14.34 53.07 20.17 54.03C32.19 56.02 43.59 47.85 45.58 35.82C46.54 30 45.17 24.15 41.74 19.35C38.3 14.55 33.2 11.38 27.37 10.42C26.92 10.34 26.61 9.91 26.68 9.46C26.76 9.01 27.19 8.7 27.64 8.77C33.91 9.81 39.39 13.22 43.09 18.38C46.79 23.54 48.25 29.83 47.22 36.1C46.19 42.36 42.77 47.84 37.61 51.54C33.53 54.47 28.74 56 23.82 56Z" fill="#09A66D" fill-opacity="1.000000" fill-rule="nonzero"/>
		<path id="Vector" d="M18.76 20.11C9.88 18.6 4.36 7.41 4.36 7.41C4.36 7.41 13.26 -1.34 22.15 0.17C31.04 1.68 36.55 12.87 36.55 12.87C36.55 12.87 27.65 21.62 18.76 20.11Z" fill="#49CB5C" fill-opacity="1.000000" fill-rule="nonzero"/>
		<path id="Vector" d="M22.15 0.17C20.45 -0.12 18.75 -0.03 17.12 0.3C25.63 2.21 30.89 12.87 30.89 12.87C30.89 12.87 25.06 18.59 18.13 19.98C18.34 20.03 18.55 20.07 18.76 20.11C27.65 21.62 36.55 12.87 36.55 12.87C36.55 12.87 31.04 1.68 22.15 0.17Z" fill="#07B128" fill-opacity="1.000000" fill-rule="nonzero"/>
		<path id="Vector" d="M36.05 11.94L27.36 10.47L19.24 0.02C18.59 0.06 17.95 0.14 17.31 0.26L24.93 10.06L18.37 8.96L12.78 1.72C12.26 1.96 11.75 2.21 11.26 2.47L15.95 8.55L5.12 6.72C4.63 7.15 4.36 7.41 4.36 7.41C4.36 7.41 4.54 7.77 4.88 8.37L15.66 10.19L9.68 14.81C10.07 15.21 10.47 15.6 10.89 15.98L17.9 10.57L24.84 11.74L15.4 19.04C15.98 19.31 16.59 19.55 17.21 19.74L27.07 12.11L35.77 13.58C36.27 13.14 36.55 12.87 36.55 12.87C36.55 12.87 36.38 12.52 36.05 11.94Z" fill="#09A66D" fill-opacity="1.000000" fill-rule="nonzero"/>
		<path id="Vector" d="M42.6 9.24C44.98 3.6 53.24 1.7 53.24 1.7C53.24 1.7 57.64 8.95 55.25 14.59C52.87 20.24 44.61 22.13 44.61 22.13C44.61 22.13 40.21 14.89 42.6 9.24Z" fill="#49CB5C" fill-opacity="1.000000" fill-rule="nonzero"/>
		<path id="Vector" d="M53.24 1.7C53.24 1.7 51.36 2.14 49.14 3.2C50.28 5.62 52.09 10.52 50.37 14.59C49.12 17.54 46.27 19.47 43.83 20.64C44.27 21.57 44.61 22.13 44.61 22.13C44.61 22.13 52.87 20.24 55.25 14.59C57.64 8.95 53.24 1.7 53.24 1.7Z" fill="#07B128" fill-opacity="1.000000" fill-rule="nonzero"/>
		<path id="Vector" d="M55.93 9.94L49.58 12.6L53.75 2.63C53.45 2.04 53.24 1.7 53.24 1.7C53.24 1.7 52.85 1.79 52.21 1.99L47.9 12.3L45.23 5.72C44.77 6.12 44.34 6.56 43.96 7.03L46.99 14.48L44.14 21.28C44.42 21.82 44.61 22.13 44.61 22.13C44.61 22.13 45.03 22.04 45.72 21.82L48.66 14.79L55.93 11.75C55.97 11.14 55.97 10.54 55.93 9.94Z" fill="#09A66D" fill-opacity="1.000000" fill-rule="nonzero"/>
	</g>
</svg>
