<svg width="32.000000" height="32.000000" viewBox="0 0 32 32" fill="none" xmlns="http://www.w3.org/2000/svg" xmlns:xlink="http://www.w3.org/1999/xlink">
	<desc>
			Created with Pixso.
	</desc>
	<defs>
		<clipPath id="clip32_183">
			<rect id="star 7" rx="0.000000" width="31.000000" height="31.000000" transform="translate(0.500000 0.500000)" fill="white" fill-opacity="0"/>
		</clipPath>
	</defs>
	<rect id="star 7" rx="0.000000" width="31.000000" height="31.000000" transform="translate(0.500000 0.500000)" fill="#FFFFFF" fill-opacity="0"/>
	<g clip-path="url(#clip32_183)">
		<path id="Vector" d="M31.95 12.32C31.84 11.98 31.55 11.74 31.19 11.69L21.27 10.24L16.84 1.25C16.68 0.93 16.35 0.73 16 0.73C15.64 0.73 15.31 0.93 15.15 1.25L10.72 10.24L0.8 11.69C0.44 11.74 0.15 11.98 0.04 12.32C-0.07 12.66 0.02 13.04 0.28 13.28L7.46 20.28L5.76 30.16C5.7 30.51 5.85 30.87 6.13 31.08C6.42 31.29 6.81 31.32 7.12 31.15L16 26.49L24.87 31.15C25 31.22 25.15 31.26 25.3 31.26C25.5 31.26 25.69 31.2 25.85 31.08C26.14 30.87 26.29 30.51 26.23 30.16L24.53 20.28L31.71 13.28C31.97 13.04 32.06 12.66 31.95 12.32Z" fill="#FED42D" fill-opacity="1.000000" fill-rule="nonzero"/>
		<path id="Vector" d="M31.95 12.32C31.84 11.98 31.55 11.74 31.19 11.69L21.27 10.24L16.84 1.25C16.68 0.93 16.35 0.73 16 0.73L16 26.49L24.87 31.15C25 31.22 25.15 31.26 25.3 31.26C25.5 31.26 25.69 31.2 25.86 31.08C26.14 30.87 26.29 30.51 26.23 30.16L24.53 20.28L31.71 13.28C31.97 13.04 32.06 12.66 31.95 12.32Z" fill="#FCBF29" fill-opacity="1.000000" fill-rule="nonzero"/>
	</g>
</svg>
