<svg width="32.000000" height="32.000000" viewBox="0 0 32 32" fill="none" xmlns="http://www.w3.org/2000/svg" xmlns:xlink="http://www.w3.org/1999/xlink">
	<desc>
			Created with Pixso.
	</desc>
	<defs>
		<clipPath id="clip32_168">
			<rect id="user 1" rx="0.000000" width="31.000000" height="31.000000" transform="translate(0.500000 0.500000)" fill="white" fill-opacity="0"/>
		</clipPath>
	</defs>
	<rect id="user 1" rx="0.000000" width="31.000000" height="31.000000" transform="translate(0.500000 0.500000)" fill="#FFFFFF" fill-opacity="0"/>
	<g clip-path="url(#clip32_168)">
		<path id="Vector" d="M16 0C11.43 0 7.69 3.73 7.69 8.3C7.69 12.87 11.43 16.61 16 16.61C20.57 16.61 24.31 12.87 24.31 8.3C24.31 3.73 20.57 0 16 0Z" fill="#09A66D" fill-opacity="1.000000" fill-rule="nonzero"/>
		<path id="Vector" d="M30.26 23.25C30.04 22.71 29.75 22.2 29.42 21.73C27.75 19.26 25.18 17.63 22.27 17.23C21.91 17.19 21.51 17.26 21.22 17.48C19.7 18.61 17.88 19.19 16 19.19C14.11 19.19 12.3 18.61 10.77 17.48C10.48 17.26 10.08 17.16 9.72 17.23C6.82 17.63 4.21 19.26 2.57 21.73C2.25 22.2 1.96 22.74 1.74 23.25C1.63 23.47 1.67 23.72 1.78 23.94C2.07 24.45 2.43 24.96 2.75 25.39C3.26 26.08 3.81 26.7 4.42 27.28C4.93 27.79 5.51 28.26 6.09 28.73C8.96 30.87 12.41 32 15.96 32C19.52 32 22.96 30.87 25.83 28.73C26.41 28.29 26.99 27.79 27.5 27.28C28.08 26.7 28.66 26.08 29.17 25.39C29.53 24.92 29.86 24.45 30.15 23.94C30.33 23.72 30.36 23.47 30.26 23.25Z" fill="#09A66D" fill-opacity="1.000000" fill-rule="nonzero"/>
	</g>
</svg>
